<svg xmlns="http://www.w3.org/2000/svg" viewBox="0 0 512 512">
  <g transform="translate(256,256) scale(0.27) translate(-1031,-1031)" fill="currentColor">
    <path d="M1108.34 1376.85C1258.21 1333.42 1373.02 1248.82 1325.13 1152.09C1227.8 992.546 995.221 976.035 823.868 1035.38L795.507 1001.34C879.337 970.531 976.107 955.742 1067.73 962.059C1302.84 988.294 1381.92 1128.43 1391.66 1156.39C1438.25 1290.07 1321.97 1392.28 1162.27 1441.59L1108.34 1376.85Z"/>
    <path d="M1210.69 1003.85C1028.17 1056.74 793.653 1048.57 737.664 926.844C684.918 812.171 784.68 711.396 926.217 662.377L897.856 628.334C733.523 688.725 618.914 810.67 690.295 955.843C788.104 1108.43 1061.49 1131.3 1264.62 1068.58L1210.69 1003.85Z"/>
    <path d="M1318.66 1133.45C968.202 1235.83 472.698 1170.65 491.758 890.665C504.144 708.708 640.438 589.837 815.697 529.714L778.287 484.809C445.36 614.575 419.288 858.276 423.109 904.741C450.903 1242.85 993.886 1327.91 1376.6 1203L1318.66 1133.45Z"/>
    <path d="M1216.31 1506.44C1401.21 1452.43 1545.74 1351.77 1553.02 1211.4C1569.34 897.005 1063.55 782.572 713.351 902.708L675.941 857.803C677.098 857.352 678.258 856.903 679.421 856.455C1074.93 724.921 1660.59 860.384 1643.43 1237.98C1615.98 1399.27 1465.03 1513.72 1274.25 1575.99L1216.31 1506.44Z"/>
  </g>
</svg>
